<svg id="footer-logo-svg" xmlns="http://www.w3.org/2000/svg" viewBox="0 0 4486.51 763.5" aria-labelledby="footer-logo-svg-title" role="img">
                        <title id="footer-logo-svg-title">Queue-it Logo</title>
                        <path class="footer-logo-svg-path" d="M453,594c-118,0-202-53-232-137-10-26-15-54-15-85s5-59,15-85c30-84,114-137,232-137s203,53,233,137c10,26,15,54,15,85s-5,59-15,85c-31,85-115,137-233,137ZM0,372c0,49,7,94,22,134,54,151,211,238,429,238h447v-199l-249,65v-24c61-13,110-31,149-56,76-46,100-113,100-212C898,90,658,0,450,0,231,0,76,88,22,238,7,278,0,323,0,372Z"></path>
                        <path class="footer-logo-svg-path" d="M1159.42,763c104,0,170-52,206-156h20l-38,137h186V249h-186v247c0,79-43,127-117,127-66,0-98-36-98-101V249h-186v302c0,138,71,212,213,212Z"></path>
                        <path class="footer-logo-svg-path" d="M2465.02,763c104,0,170-52,206-156h20l-38,137h186V249h-186v247c0,79-43,127-117,127-66,0-98-36-98-101V249h-186v302c0,138,71,212,213,212Z"></path>
                        <path class="footer-logo-svg-path" d="M1903.66,763c162,0,277-69,300-173h-185c-19,36-59,56-118,56-55,0-95-16-116-47-12-16-19-38-23-64h440v-39c0-169-110-266-305-266-122,0-218,40-269,113-27,41-45,93-45,155s15,112,43,152c51,73,148,113,278,113Zm-139-322c4-19,10-35,19-48,22-32,63-49,114-49,80,0,122,35,126,97h-259Z"></path>
                        <path class="footer-logo-svg-path" d="M3209.26,763c162,0,277-69,300-173h-185c-19,36-59,56-118,56-55,0-95-16-116-47-12-16-19-38-23-64h440v-39c0-169-110-266-305-266-122,0-218,40-269,113-27,41-45,93-45,155s15,112,43,152c51,73,148,113,278,113Zm-139-322c4-19,10-35,19-48,22-32,63-49,114-49,80,0,122,35,126,97h-259Z"></path>
                        <path class="footer-logo-svg-path" d="M3713.82,611c64,0,118-53,118-117s-54-118-118-118-117,54-117,118,53,117,117,117Z"></path>
                        <path class="footer-logo-svg-path" d="M3922.54,249.64v495h186V249.64h-186Zm-3-46h192V73.64h-192V203.64Z"></path>
                        <path class="footer-logo-svg-path" d="M4160.51,118.5v432c0,148,92,213,212,213,40,0,74-2,111-8v-130c-17,3-37,3-49,3-58,0-88-37-88-102v-161h140v-113h-140V118.5h-186Z"></path>
                    </svg>